<svg xmlns="http://www.w3.org/2000/svg" xmlns:xlink="http://www.w3.org/1999/xlink" version="1.1" data-diagram-type="STATE" style="width:1678px;height:388px;background:#FFFFFF;" width="1678px" height="388px" viewBox="0 0 1678 388" zoomAndPan="magnify" preserveAspectRatio="none" contentStyleType="text/css"><?plantuml 1.2026.7beta11?><defs/><g font-family="sans-serif" lengthAdjust="spacing"><g class="entity" data-qualified-name="SESION_CERRADA" id="ent0001" data-source-line="4"><rect x="87" y="230" width="147.251" height="50" fill="#F1F1F1" style="stroke:#181818;stroke-width:0.5;" rx="12.5" ry="12.5"/><line x1="87" y1="256.297" x2="234.251" y2="256.297" style="stroke:#181818;stroke-width:0.5;"/><text x="97" y="247.995" fill="#000" font-size="14" textLength="127.251">SESION_CERRADA</text></g><g class="entity" data-qualified-name="TICKETS_PROPIOS_ABIERTO" id="ent0002" data-source-line="5"><rect x="388.25" y="230" width="215.043" height="50" fill="#F1F1F1" style="stroke:#181818;stroke-width:0.5;" rx="12.5" ry="12.5"/><line x1="388.25" y1="256.297" x2="603.293" y2="256.297" style="stroke:#181818;stroke-width:0.5;"/><text x="398.25" y="247.995" fill="#000" font-size="14" textLength="195.043">TICKETS_PROPIOS_ABIERTO</text></g><g class="entity" data-qualified-name="TICKET_ABIERTO" id="ent0003" data-source-line="6"><rect x="925.78" y="173" width="137.489" height="50" fill="#F1F1F1" style="stroke:#181818;stroke-width:0.5;" rx="12.5" ry="12.5"/><line x1="925.78" y1="199.297" x2="1063.269" y2="199.297" style="stroke:#181818;stroke-width:0.5;"/><text x="935.78" y="190.995" fill="#000" font-size="14" textLength="117.489">TICKET_ABIERTO</text></g><g class="entity" data-qualified-name="ARTICULOS_CONOCIMIENTO_ABIERTO" id="ent0004" data-source-line="7"><rect x="851.29" y="323" width="286.458" height="50" fill="#F1F1F1" style="stroke:#181818;stroke-width:0.5;" rx="12.5" ry="12.5"/><line x1="851.29" y1="349.297" x2="1137.748" y2="349.297" style="stroke:#181818;stroke-width:0.5;"/><text x="861.29" y="340.995" fill="#000" font-size="14" textLength="266.458">ARTICULOS_CONOCIMIENTO_ABIERTO</text></g><g class="entity" data-qualified-name="ARTICULO_CONOCIMIENTO_ABIERTO" id="ent0005" data-source-line="8"><rect x="1385.75" y="323" width="277.571" height="50" fill="#F1F1F1" style="stroke:#181818;stroke-width:0.5;" rx="12.5" ry="12.5"/><line x1="1385.75" y1="349.297" x2="1663.321" y2="349.297" style="stroke:#181818;stroke-width:0.5;"/><text x="1395.75" y="340.995" fill="#000" font-size="14" textLength="257.571">ARTICULO_CONOCIMIENTO_ABIERTO</text></g><g class="start_entity" data-qualified-name=".start." id="ent0006" data-source-line="10"><ellipse cx="16" cy="255" rx="10" ry="10" fill="#222" style="stroke:#222;stroke-width:1;"/></g><!--link *start* to SESION_CERRADA--><g class="link" data-entity-1="ent0006" data-entity-2="ent0001" id="lnk7" data-source-line="10" data-link-type="dependency"><path d="M26.36,255 C39,255 57.73,255 81.69,255" style="stroke:#181818;stroke-width:1;" fill="none" id="*start*-to-SESION_CERRADA"/><polygon points="86.69,255,77.69,251,81.69,255,77.69,259,86.69,255" fill="#181818" style="stroke:#181818;stroke-width:1;stroke-linejoin:miter;stroke-miterlimit:10;"/></g><!--link SESION_CERRADA to TICKETS_PROPIOS_ABIERTO--><g class="link" data-entity-1="ent0001" data-entity-2="ent0002" id="lnk8" data-source-line="12" data-link-type="dependency"><path d="M234.74,255 C279.65,255 332.97,255 383,255" style="stroke:#181818;stroke-width:1;" fill="none" id="SESION_CERRADA-to-TICKETS_PROPIOS_ABIERTO"/><polygon points="388,255,379,251,383,255,379,259,388,255" fill="#181818" style="stroke:#181818;stroke-width:1;stroke-linejoin:miter;stroke-miterlimit:10;"/><text x="265.25" y="251.067" fill="#000" font-size="13" textLength="92.504">iniciarSesion()</text></g><!--link TICKETS_PROPIOS_ABIERTO to SESION_CERRADA--><g class="link" data-entity-1="ent0002" data-entity-2="ent0001" id="lnk10" data-source-line="15" data-link-type="dependency"><path d="M387.87,274.58 C370.6,277.74 358.25,280 358.25,280 C358.25,280 264.25,280 264.25,280 C264.25,280 256.138,278.023 239.428,273.953" style="stroke:#181818;stroke-width:1;" fill="none" id="TICKETS_PROPIOS_ABIERTO-to-SESION_CERRADA"/><polygon points="234.57,272.77,242.368,278.786,239.428,273.953,244.261,271.013,234.57,272.77" fill="#181818" style="stroke:#181818;stroke-width:1;stroke-linejoin:miter;stroke-miterlimit:10;"/><text x="265.25" y="276.067" fill="#000" font-size="13" textLength="92.117">cerrarSesion()</text></g><!--link SESION_CERRADA to SESION_CERRADA--><g class="link" data-entity-1="ent0001" data-entity-2="ent0001" id="lnk9" data-source-line="14" data-link-type="dependency"><path d="M143.01,229.72 C137.67,212.23 143.54,195 160.63,195 C177.71,195 185.04,207.448 179.7,224.938" style="stroke:#181818;stroke-width:1;" fill="none" id="SESION_CERRADA-to-SESION_CERRADA"/><polygon points="178.24,229.72,184.694,222.28,179.7,224.938,177.042,219.944,178.24,229.72" fill="#181818" style="stroke:#181818;stroke-width:1;stroke-linejoin:miter;stroke-miterlimit:10;"/><text x="114.63" y="186.067" fill="#000" font-size="13" textLength="92.504">iniciarSesion()</text></g><!--link TICKETS_PROPIOS_ABIERTO to TICKET_ABIERTO--><g class="link" data-entity-1="ent0002" data-entity-2="ent0003" id="lnk11" data-source-line="19" data-link-type="dependency"><path d="M542.99,229.61 C582.6,207.85 633.29,180 633.29,180 C633.29,180 821.29,180 821.29,180 C821.29,180 872.337,185.329 920.477,190.369" style="stroke:#181818;stroke-width:1;" fill="none" id="TICKETS_PROPIOS_ABIERTO-to-TICKET_ABIERTO"/><polygon points="925.45,190.89,916.915,185.975,920.477,190.369,916.082,193.931,925.45,190.89" fill="#181818" style="stroke:#181818;stroke-width:1;stroke-linejoin:miter;stroke-miterlimit:10;"/><text x="685.79" y="176.067" fill="#000" font-size="13" textLength="83.269">crearTicket()</text></g><!--link TICKETS_PROPIOS_ABIERTO to TICKET_ABIERTO--><g class="link" data-entity-1="ent0002" data-entity-2="ent0003" id="lnk12" data-source-line="20" data-link-type="dependency"><path d="M603.67,240.91 C620.94,238.63 633.29,237 633.29,237 C633.29,237 815.939,217.228 920.369,205.918" style="stroke:#181818;stroke-width:1;" fill="none" id="TICKETS_PROPIOS_ABIERTO-to-TICKET_ABIERTO-1"/><polygon points="925.34,205.38,915.962,202.372,920.369,205.918,916.823,210.326,925.34,205.38" fill="#181818" style="stroke:#181818;stroke-width:1;stroke-linejoin:miter;stroke-miterlimit:10;"/><text x="687.79" y="213.067" fill="#000" font-size="13" textLength="79.987">abrirTicket()</text></g><!--link TICKET_ABIERTO to TICKETS_PROPIOS_ABIERTO--><g class="link" data-entity-1="ent0003" data-entity-2="ent0002" id="lnk13" data-source-line="21" data-link-type="dependency"><path d="M925.45,223.29 C877.31,241.18 821.29,262 821.29,262 C821.29,262 633.29,262 633.29,262 C633.29,262 625.933,261.627 608.663,260.737" style="stroke:#181818;stroke-width:1;" fill="none" id="TICKET_ABIERTO-to-TICKETS_PROPIOS_ABIERTO"/><polygon points="603.67,260.48,612.452,264.938,608.663,260.737,612.864,256.948,603.67,260.48" fill="#181818" style="stroke:#181818;stroke-width:1;stroke-linejoin:miter;stroke-miterlimit:10;"/><text x="660.29" y="258.067" fill="#000" font-size="13" textLength="134.488">abrirTicketsPropios()</text></g><!--link TICKET_ABIERTO to TICKET_ABIERTO--><g class="link" data-entity-1="ent0003" data-entity-2="ent0003" id="lnk14" data-source-line="26" data-link-type="dependency"><path d="M983.22,172.72 C979.79,155.23 983.56,138 994.52,138 C1005.48,138 1010.21,150.323 1006.79,167.813" style="stroke:#181818;stroke-width:1;" fill="none" id="TICKET_ABIERTO-to-TICKET_ABIERTO"/><polygon points="1005.83,172.72,1011.483,164.655,1006.79,167.813,1003.631,163.12,1005.83,172.72" fill="#181818" style="stroke:#181818;stroke-width:1;stroke-linejoin:miter;stroke-miterlimit:10;"/><text x="939.02" y="129.067" fill="#000" font-size="13" textLength="111.877">comentarTicket()</text></g><!--link TICKET_ABIERTO to TICKET_ABIERTO--><g class="link" data-entity-1="ent0003" data-entity-2="ent0003" id="lnk15" data-source-line="27" data-link-type="dependency"><path d="M976.96,172.7 C962.83,140.89 968.69,103 994.52,103 C1020.36,103 1028.24,136.321 1014.11,168.131" style="stroke:#181818;stroke-width:1;" fill="none" id="TICKET_ABIERTO-to-TICKET_ABIERTO-1"/><polygon points="1012.08,172.7,1019.389,166.099,1014.11,168.131,1012.078,162.851,1012.08,172.7" fill="#181818" style="stroke:#181818;stroke-width:1;stroke-linejoin:miter;stroke-miterlimit:10;"/><text x="919.02" y="94.067" fill="#000" font-size="13" textLength="151.69">confirmarCierreTicket()</text></g><!--link TICKET_ABIERTO to TICKET_ABIERTO--><g class="link" data-entity-1="ent0003" data-entity-2="ent0003" id="lnk16" data-source-line="28" data-link-type="dependency"><path d="M973.32,172.79 C945.86,127.72 952.93,68 994.52,68 C1036.11,68 1045.782,123.45 1018.322,168.52" style="stroke:#181818;stroke-width:1;" fill="none" id="TICKET_ABIERTO-to-TICKET_ABIERTO-2"/><polygon points="1015.72,172.79,1023.819,167.185,1018.322,168.52,1016.987,163.023,1015.72,172.79" fill="#181818" style="stroke:#181818;stroke-width:1;stroke-linejoin:miter;stroke-miterlimit:10;"/><text x="948.02" y="59.067" fill="#000" font-size="13" textLength="93.33">reabrirTicket()</text></g><!--link TICKET_ABIERTO to TICKET_ABIERTO--><g class="link" data-entity-1="ent0003" data-entity-2="ent0003" id="lnk17" data-source-line="29" data-link-type="dependency"><path d="M970.87,172.78 C928.96,114.98 936.85,33 994.52,33 C1052.2,33 1063.015,110.932 1021.115,168.732" style="stroke:#181818;stroke-width:1;" fill="none" id="TICKET_ABIERTO-to-TICKET_ABIERTO-3"/><polygon points="1018.18,172.78,1026.701,167.841,1021.115,168.732,1020.224,163.146,1018.18,172.78" fill="#181818" style="stroke:#181818;stroke-width:1;stroke-linejoin:miter;stroke-miterlimit:10;"/><text x="914.02" y="24.067" fill="#000" font-size="13" textLength="161.96">adjuntarArchivoATicket()</text></g><!--link TICKETS_PROPIOS_ABIERTO to ARTICULOS_CONOCIMIENTO_ABIERTO--><g class="link" data-entity-1="ent0002" data-entity-2="ent0004" id="lnk18" data-source-line="31" data-link-type="dependency"><path d="M603.67,280.06 C620.94,284.1 633.29,287 633.29,287 C633.29,287 745.33,305.975 845.96,323.015" style="stroke:#181818;stroke-width:1;" fill="none" id="TICKETS_PROPIOS_ABIERTO-to-ARTICULOS_CONOCIMIENTO_ABIERTO"/><polygon points="850.89,323.85,842.684,318.404,845.96,323.015,841.348,326.291,850.89,323.85" fill="#181818" style="stroke:#181818;stroke-width:1;stroke-linejoin:miter;stroke-miterlimit:10;"/><text x="634.29" y="283.067" fill="#000" font-size="13" textLength="186.881">abrirArticulosConocimiento()</text></g><!--link ARTICULOS_CONOCIMIENTO_ABIERTO to TICKETS_PROPIOS_ABIERTO--><g class="link" data-entity-1="ent0004" data-entity-2="ent0002" id="lnk19" data-source-line="32" data-link-type="dependency"><path d="M850.89,345.62 C750.26,343.95 633.29,342 633.29,342 C633.29,342 581.136,308.767 540.846,283.087" style="stroke:#181818;stroke-width:1;" fill="none" id="ARTICULOS_CONOCIMIENTO_ABIERTO-to-TICKETS_PROPIOS_ABIERTO"/><polygon points="536.63,280.4,542.07,288.61,540.846,283.087,546.369,281.864,536.63,280.4" fill="#181818" style="stroke:#181818;stroke-width:1;stroke-linejoin:miter;stroke-miterlimit:10;"/><text x="660.29" y="338.067" fill="#000" font-size="13" textLength="134.488">abrirTicketsPropios()</text></g><!--link ARTICULOS_CONOCIMIENTO_ABIERTO to ARTICULO_CONOCIMIENTO_ABIERTO--><g class="link" data-entity-1="ent0004" data-entity-2="ent0005" id="lnk20" data-source-line="34" data-link-type="dependency"><path d="M1138.06,348 C1214.88,348 1304.24,348 1380.37,348" style="stroke:#181818;stroke-width:1;" fill="none" id="ARTICULOS_CONOCIMIENTO_ABIERTO-to-ARTICULO_CONOCIMIENTO_ABIERTO"/><polygon points="1385.37,348,1376.37,344,1380.37,348,1376.37,352,1385.37,348" fill="#181818" style="stroke:#181818;stroke-width:1;stroke-linejoin:miter;stroke-miterlimit:10;"/><text x="1171.75" y="344.067" fill="#000" font-size="13" textLength="180.108">abrirArticuloConocimiento()</text></g><!--link ARTICULO_CONOCIMIENTO_ABIERTO to ARTICULOS_CONOCIMIENTO_ABIERTO--><g class="link" data-entity-1="ent0005" data-entity-2="ent0004" id="lnk22" data-source-line="37" data-link-type="dependency"><path d="M1385.36,368.59 C1367.77,371.21 1355.75,373 1355.75,373 C1355.75,373 1167.75,373 1167.75,373 C1167.75,373 1160.728,371.978 1143.088,369.418" style="stroke:#181818;stroke-width:1;" fill="none" id="ARTICULO_CONOCIMIENTO_ABIERTO-to-ARTICULOS_CONOCIMIENTO_ABIERTO"/><polygon points="1138.14,368.7,1146.472,373.951,1143.088,369.418,1147.621,366.034,1138.14,368.7" fill="#181818" style="stroke:#181818;stroke-width:1;stroke-linejoin:miter;stroke-miterlimit:10;"/><text x="1168.75" y="369.067" fill="#000" font-size="13" textLength="186.881">abrirArticulosConocimiento()</text></g><!--link ARTICULOS_CONOCIMIENTO_ABIERTO to ARTICULOS_CONOCIMIENTO_ABIERTO--><g class="link" data-entity-1="ent0004" data-entity-2="ent0004" id="lnk21" data-source-line="36" data-link-type="dependency"><path d="M949.31,322.72 C935.61,305.23 950.68,288 994.52,288 C1038.37,288 1056.523,301.294 1042.823,318.784" style="stroke:#181818;stroke-width:1;" fill="none" id="ARTICULOS_CONOCIMIENTO_ABIERTO-to-ARTICULOS_CONOCIMIENTO_ABIERTO"/><polygon points="1039.74,322.72,1048.439,318.101,1042.823,318.784,1042.141,313.168,1039.74,322.72" fill="#181818" style="stroke:#181818;stroke-width:1;stroke-linejoin:miter;stroke-miterlimit:10;"/><text x="904.52" y="279.067" fill="#000" font-size="13" textLength="180.108">abrirArticuloConocimiento()</text></g><?plantuml-src fLJBRXD14BpxArgv946sH03ny05fMOna0Td8Tau8HUFPNgUJsPcbPzOY_4sE73Zn2VunUjO4Fs8x3qwhwUdggQwkROD5WE20QN8U82T67SZPbhyaMobM9HYo6AugXCgPgtXejNnG0M7O6_QpuxEqDnWaxvE_mL4__TWR3SzE1jb9FnkU9U_wlS4eMxbT2oO32Pz-akGqEyxI_kT-xtYKRKdQdDFwykGhT3flrpcrLizDoXQ6q0Mof4dn4BqeS73OsWVDcAELe44lrzFPjQ5SUJZua7IE84SuJJjFZmwxuD4K7UDS1VYzChDVcaHJj60KeAzGKq5QQPhzjfiehOLkCzd6UIDO8_CILjg8B9ztDv2HWMk4FUriGLpEOssG8w21GFeI0uWZQFRJHYrKxlRaJUbMYf8Do1LZK08e7SYKcEc7ujYtm7EvCGRRG9DQ6VXMOrFYvXeliAoCYo8o5iYDp3iRNJLFR3IM6pKixz3e5bIDcTQX6n2RNB84zIViAd9-eVBBTlDvDV-yRZulddN1aftKrYtf3vMoKI051LdHHrJnDHIcld0mdbrxqgujHIja9_zdxhm0E4XMlj0Mha3f8EgAx8seLSC7vkpcamBbwn8N1er55nE961MuiO8hXOWCjNc1qOTcE4fhyP7Otxin8zJsfheQ4t9msyLRdfGhKRgzX-8heBahEPM761-45MVSRyBBWyqlwaWoONrEKvVy0--qrkxjTUENXELlgetpgRDEKqaYXvFITw0VvSHxrDovJTSvhr7UX-NbzwOBK_8qfhWOSubQdAXSHU-9tHcdQE9-45jPobqx6b9y9mdpBM18rdlk7i9v-1ZIknl-xpd-0G00?></g></svg>