<svg xmlns="http://www.w3.org/2000/svg" xmlns:xlink="http://www.w3.org/1999/xlink" version="1.1" data-diagram-type="STATE" style="width:843px;height:825px;background:#FFFFFF;" width="843px" height="825px" viewBox="0 0 843 825" zoomAndPan="magnify" preserveAspectRatio="none" contentStyleType="text/css"><?plantuml 1.2026.7beta11?><defs/><g font-family="sans-serif" lengthAdjust="spacing"><g class="start_entity" data-qualified-name=".start." id="ent0001" data-source-line="3"><ellipse cx="358.38" cy="16" rx="10" ry="10" fill="#222" style="stroke:#222;stroke-width:1;"/></g><rect x="328" y="103" width="60.777" height="40" fill="#F1F1F1" style="stroke:#181818;stroke-width:0.5;" rx="12.5" ry="12.5"/><text x="333" y="127.847" fill="#000" font-size="14" textLength="50.777">Abierto</text><rect x="321.11" y="220" width="74.552" height="40" fill="#F1F1F1" style="stroke:#181818;stroke-width:0.5;" rx="12.5" ry="12.5"/><text x="326.11" y="244.847" fill="#000" font-size="14" textLength="64.552">Asignado</text><rect x="313.59" y="337" width="89.598" height="40" fill="#F1F1F1" style="stroke:#181818;stroke-width:0.5;" rx="12.5" ry="12.5"/><text x="318.59" y="361.847" fill="#000" font-size="14" textLength="79.598">EnProgreso</text><rect x="196.22" y="454" width="72.337" height="40" fill="#F1F1F1" style="stroke:#181818;stroke-width:0.5;" rx="12.5" ry="12.5"/><text x="201.22" y="478.847" fill="#000" font-size="14" textLength="62.337">Escalado</text><rect x="309.85" y="571" width="71.065" height="40" fill="#F1F1F1" style="stroke:#181818;stroke-width:0.5;" rx="12.5" ry="12.5"/><text x="314.85" y="595.847" fill="#000" font-size="14" textLength="61.065">Resuelto</text><rect x="49.42" y="688" width="65.932" height="40" fill="#F1F1F1" style="stroke:#181818;stroke-width:0.5;" rx="12.5" ry="12.5"/><text x="54.42" y="712.847" fill="#000" font-size="14" textLength="55.932">Cerrado</text><rect x="530.32" y="688" width="78.12" height="40" fill="#F1F1F1" style="stroke:#181818;stroke-width:0.5;" rx="12.5" ry="12.5"/><text x="535.32" y="712.847" fill="#000" font-size="14" textLength="68.12">Reabierto</text><g class="end_entity" data-qualified-name=".end." id="ent0019" data-source-line="13"><ellipse cx="82.38" cy="800" rx="11" ry="11" fill="none" style="stroke:#222;stroke-width:1;"/><ellipse cx="82.38" cy="800" rx="6" ry="6" fill="#222" style="stroke:#222;stroke-width:1;"/></g><!--link *start* to Abierto--><g class="link" data-entity-1="ent0001" data-entity-2="ent0002" id="lnk3" data-source-line="3" data-link-type="dependency"><path d="M358.38,26.32 C358.38,43.38 358.38,74.98 358.38,97.64" style="stroke:#181818;stroke-width:1;" fill="none" id="*start*-to-Abierto"/><polygon points="358.38,102.64,362.38,93.64,358.38,97.64,354.38,93.64,358.38,102.64" fill="#181818" style="stroke:#181818;stroke-width:1;stroke-linejoin:miter;stroke-miterlimit:10;"/><text x="359.38" y="69.067" fill="#000" font-size="13" textLength="157.53">Solicitante crea el ticket</text></g><!--link Abierto to Asignado--><g class="link" data-entity-1="ent0002" data-entity-2="ent0004" id="lnk5" data-source-line="4" data-link-type="dependency"><path d="M358.38,143.25 C358.38,164.48 358.38,193.44 358.38,214.69" style="stroke:#181818;stroke-width:1;" fill="none" id="Abierto-to-Asignado"/><polygon points="358.38,219.69,362.38,210.69,358.38,214.69,354.38,210.69,358.38,219.69" fill="#181818" style="stroke:#181818;stroke-width:1;stroke-linejoin:miter;stroke-miterlimit:10;"/><text x="359.38" y="186.067" fill="#000" font-size="13" textLength="162.773">Agente N1 toma el ticket</text></g><!--link Asignado to EnProgreso--><g class="link" data-entity-1="ent0004" data-entity-2="ent0006" id="lnk7" data-source-line="5" data-link-type="dependency"><path d="M358.38,260.25 C358.38,281.48 358.38,310.44 358.38,331.69" style="stroke:#181818;stroke-width:1;" fill="none" id="Asignado-to-EnProgreso"/><polygon points="358.38,336.69,362.38,327.69,358.38,331.69,354.38,327.69,358.38,336.69" fill="#181818" style="stroke:#181818;stroke-width:1;stroke-linejoin:miter;stroke-miterlimit:10;"/><text x="359.38" y="303.067" fill="#000" font-size="13" textLength="145.184">Agente inicia atención</text></g><!--link EnProgreso to Escalado--><g class="link" data-entity-1="ent0006" data-entity-2="ent0008" id="lnk9" data-source-line="6" data-link-type="dependency"><path d="M313.29,358.26 C235.67,359.76 81.92,367.75 48.38,407 C6,456.61 126.056,468.695 190.956,471.755" style="stroke:#181818;stroke-width:1;" fill="none" id="EnProgreso-to-Escalado"/><polygon points="195.95,471.99,187.148,467.571,190.956,471.755,186.772,475.562,195.95,471.99" fill="#181818" style="stroke:#181818;stroke-width:1;stroke-linejoin:miter;stroke-miterlimit:10;"/><text x="49.38" y="420.067" fill="#000" font-size="13" textLength="148.675">Agente escala a N2/N3</text></g><!--link Escalado to EnProgreso--><g class="link" data-entity-1="ent0008" data-entity-2="ent0006" id="lnk10" data-source-line="7" data-link-type="dependency"><path d="M229.14,453.51 C227.87,439.27 228.6,420.23 238.38,407 C255.98,383.21 282.3,372.104 308.47,365.784" style="stroke:#181818;stroke-width:1;" fill="none" id="Escalado-to-EnProgreso"/><polygon points="313.33,364.61,303.642,362.835,308.47,365.784,305.52,370.611,313.33,364.61" fill="#181818" style="stroke:#181818;stroke-width:1;stroke-linejoin:miter;stroke-miterlimit:10;"/><text x="239.38" y="420.067" fill="#000" font-size="13" textLength="210.952">Agente de nivel superior retoma</text></g><!--link EnProgreso to Resuelto--><g class="link" data-entity-1="ent0006" data-entity-2="ent0011" id="lnk12" data-source-line="8" data-link-type="dependency"><path d="M403.44,369.52 C422.63,376.9 443.15,388.65 454.38,407 C485.48,457.79 486.73,490.99 454.38,541 C438.33,565.82 411.23,577.026 386.05,583.106" style="stroke:#181818;stroke-width:1;" fill="none" id="EnProgreso-to-Resuelto"/><polygon points="381.19,584.28,390.877,586.056,386.05,583.106,389,578.279,381.19,584.28" fill="#181818" style="stroke:#181818;stroke-width:1;stroke-linejoin:miter;stroke-miterlimit:10;"/><text x="478.38" y="478.567" fill="#000" font-size="13" textLength="149.36">Agente marca solución</text></g><!--link Escalado to Resuelto--><g class="link" data-entity-1="ent0008" data-entity-2="ent0011" id="lnk13" data-source-line="9" data-link-type="dependency"><path d="M225.85,494.24 C222.32,508.34 220.32,527.33 229.38,541 C247.08,567.69 277.622,578.878 304.692,584.418" style="stroke:#181818;stroke-width:1;" fill="none" id="Escalado-to-Resuelto"/><polygon points="309.59,585.42,301.575,579.697,304.692,584.418,299.971,587.534,309.59,585.42" fill="#181818" style="stroke:#181818;stroke-width:1;stroke-linejoin:miter;stroke-miterlimit:10;"/><text x="230.38" y="537.067" fill="#000" font-size="13" textLength="219.584">Agente de nivel superior resuelve</text></g><!--link Resuelto to Cerrado--><g class="link" data-entity-1="ent0011" data-entity-2="ent0014" id="lnk15" data-source-line="10" data-link-type="dependency"><path d="M309.36,593.18 C243.81,596.17 109.11,606.47 80.38,641 C69.75,653.78 70.548,668.412 74.328,682.902" style="stroke:#181818;stroke-width:1;" fill="none" id="Resuelto-to-Cerrado"/><polygon points="75.59,687.74,77.189,678.022,74.328,682.902,69.448,680.041,75.59,687.74" fill="#181818" style="stroke:#181818;stroke-width:1;stroke-linejoin:miter;stroke-miterlimit:10;"/><text x="81.38" y="654.067" fill="#000" font-size="13" textLength="334.064">Solicitante confirma o vence el plazo de reapertura</text></g><!--link Resuelto to Reabierto--><g class="link" data-entity-1="ent0011" data-entity-2="ent0016" id="lnk17" data-source-line="11" data-link-type="dependency"><path d="M375.11,611.33 C396.9,625.12 427.43,643.69 455.38,658 C479.64,670.42 503.13,680.642 525.37,689.712" style="stroke:#181818;stroke-width:1;" fill="none" id="Resuelto-to-Reabierto"/><polygon points="530,691.6,523.177,684.498,525.37,689.712,520.156,691.905,530,691.6" fill="#181818" style="stroke:#181818;stroke-width:1;stroke-linejoin:miter;stroke-miterlimit:10;"/><text x="456.38" y="654.067" fill="#000" font-size="13" textLength="197.577">Solicitante rechaza la solución</text></g><!--link Reabierto to EnProgreso--><g class="link" data-entity-1="ent0016" data-entity-2="ent0006" id="lnk18" data-source-line="12" data-link-type="dependency"><path d="M608.93,695.63 C627.39,688.13 647.62,676.22 658.38,658 C704.78,579.49 693.56,525.04 636.38,454 C579.24,383 471.616,364.719 408.666,359.929" style="stroke:#181818;stroke-width:1;" fill="none" id="Reabierto-to-EnProgreso"/><polygon points="403.68,359.55,412.351,364.221,408.666,359.929,412.958,356.244,403.68,359.55" fill="#181818" style="stroke:#181818;stroke-width:1;stroke-linejoin:miter;stroke-miterlimit:10;"/><text x="684.38" y="537.067" fill="#000" font-size="13" textLength="143.501">Se retoma la atención</text></g><!--link Cerrado to *end*--><g class="link" data-entity-1="ent0014" data-entity-2="ent0019" id="lnk20" data-source-line="13" data-link-type="dependency"><path d="M82.38,728.09 C82.38,746.66 82.38,769.17 82.38,783.87" style="stroke:#181818;stroke-width:1;" fill="none" id="Cerrado-to-*end*"/><polygon points="82.38,788.87,86.38,779.87,82.38,783.87,78.38,779.87,82.38,788.87" fill="#181818" style="stroke:#181818;stroke-width:1;stroke-linejoin:miter;stroke-miterlimit:10;"/></g><?plantuml-src TPB1JiCm44Jl_eez8rK8k750gX3N2BL7n65nXdI5OqTh9nBzBJw17yCEJPlGShNUxCpEUYSr26sNFgb6j2fTak2DURbwfTNgWTPl0as1xcaRd5X9x1F8AfZWA8dzG38JD0gYD9xhebWtA71rGocq2tvYYk39Fsje574c4P-jc3Z1M_d-ycO6ZPfesIrCCBuGKtLxNTsP8_2VGzxQov0ZnRw3Ib1Ib9H_dJQ8FLoQALjMonI3wm_HvbRd-2MZmWmmHxWe7w7wkz6YwE3VHNDvWORS1Kg9dUDzA7Fp4VB8r2ilHst05w-ci3lUCxbv_1DyLjKMXrAAudIBAMdXypVv0G00?></g></svg>