<svg xmlns="http://www.w3.org/2000/svg" xmlns:xlink="http://www.w3.org/1999/xlink" version="1.1" data-diagram-type="STATE" style="width:371px;height:504px;background:#FFFFFF;" width="371px" height="504px" viewBox="0 0 371 504" zoomAndPan="magnify" preserveAspectRatio="none" contentStyleType="text/css"><?plantuml 1.2026.7beta11?><defs/><g font-family="sans-serif" lengthAdjust="spacing"><rect x="25.98" y="7" width="89.522" height="40" fill="#F1F1F1" style="stroke:#181818;stroke-width:0.5;" rx="12.5" ry="12.5"/><text x="30.98" y="31.847" fill="#000" font-size="14" textLength="79.522">SIN_TICKET</text><g class="entity" data-qualified-name="UC" id="ent0002" data-source-line="4"><path d="M28.41,139 L113.084,139 A12.5,12.5 0 0 1 125.584,151.5 L125.584,165.297 L15.91,165.297 L15.91,151.5 A12.5,12.5 0 0 1 28.41,139" fill="#F1F1F1"/><rect x="15.91" y="139" width="109.674" height="204.297" fill="none" style="stroke:#181818;stroke-width:0.5;" rx="12.5" ry="12.5"/><line x1="15.91" y1="165.297" x2="125.584" y2="165.297" style="stroke:#181818;stroke-width:0.5;"/><text x="25.91" y="156.995" fill="#000" font-size="14" textLength="89.674">crearTicket()</text><g class="start_entity" data-qualified-name="UC..start.UC" id="ent0004" data-source-line="5"><ellipse cx="52.91" cy="186.297" rx="10" ry="10" fill="#222" style="stroke:#222;stroke-width:1;"/></g><rect x="27.91" y="232.297" width="50" height="40" fill="#F1F1F1" style="stroke:#181818;stroke-width:0.5;" rx="12.5" ry="12.5"/><text x="44.064" y="257.144" fill="#000" font-size="14" textLength="17.691">fin</text><g class="end_entity" data-qualified-name="UC..end.UC" id="ent0007" data-source-line="6"><ellipse cx="52.91" cy="319.297" rx="11" ry="11" fill="none" style="stroke:#222;stroke-width:1;"/><ellipse cx="52.91" cy="319.297" rx="6" ry="6" fill="#222" style="stroke:#222;stroke-width:1;"/></g><!--link *start*UC to fin--><g class="link" data-entity-1="ent0004" data-entity-2="ent0005" id="lnk6" data-source-line="5" data-link-type="dependency"><path d="M52.91,196.737 C52.91,205.987 52.91,215.357 52.91,227.017" style="stroke:#181818;stroke-width:1;" fill="none" id="*start*UC-to-fin"/><polygon points="52.91,232.017,56.91,223.017,52.91,227.017,48.91,223.017,52.91,232.017" fill="#181818" style="stroke:#181818;stroke-width:1;stroke-linejoin:miter;stroke-miterlimit:10;"/></g><!--link fin to *end*UC--><g class="link" data-entity-1="ent0005" data-entity-2="ent0007" id="lnk8" data-source-line="6" data-link-type="dependency"><path d="M52.91,272.447 C52.91,284.127 52.91,293.597 52.91,303.127" style="stroke:#181818;stroke-width:1;" fill="none" id="fin-to-*end*UC"/><polygon points="52.91,308.127,56.91,299.127,52.91,303.127,48.91,299.127,52.91,308.127" fill="#181818" style="stroke:#181818;stroke-width:1;stroke-linejoin:miter;stroke-miterlimit:10;"/></g></g><rect x="7" y="450.3" width="127.489" height="40" fill="#F1F1F1" style="stroke:#181818;stroke-width:0.5;" rx="12.5" ry="12.5"/><text x="12" y="475.147" fill="#000" font-size="14" textLength="117.489">TICKET_ABIERTO</text><!--link Pre to UC--><g class="link" data-entity-1="ent0001" data-entity-2="ent0002" id="lnk9" data-source-line="10" data-link-type="dependency"><path d="M70.74,47.2 C70.74,68.27 70.74,98.73 70.74,133.54" style="stroke:#181818;stroke-width:1;" fill="none" id="Pre-to-UC"/><polygon points="70.74,138.54,74.74,129.54,70.74,133.54,66.74,129.54,70.74,138.54" fill="#181818" style="stroke:#181818;stroke-width:1;stroke-linejoin:miter;stroke-miterlimit:10;"/><text x="87.996" y="90.067" fill="#000" font-size="13" textLength="78.641" font-weight="700">Solicitante</text><text x="170.77" y="90.067" fill="#000" font-size="13" textLength="147.831">completa el formulario</text><text x="71.74" y="105.2" fill="#000" font-size="13" textLength="263.117">(título, descripción, categoría) y lo envía</text></g><!--link UC to Post--><g class="link" data-entity-1="ent0002" data-entity-2="ent0003" id="lnk10" data-source-line="11" data-link-type="dependency"><path d="M70.74,343.77 C70.74,383.93 70.74,421.11 70.74,444.92" style="stroke:#181818;stroke-width:1;" fill="none" id="UC-to-Post"/><polygon points="70.74,449.92,74.74,440.92,70.74,444.92,66.74,440.92,70.74,449.92" fill="#181818" style="stroke:#181818;stroke-width:1;stroke-linejoin:miter;stroke-miterlimit:10;"/><text x="114.38" y="386.367" fill="#000" font-size="13" textLength="58.906" font-weight="700">Sistema</text><text x="177.419" y="386.367" fill="#000" font-size="13" textLength="135.021">valida, crea el Ticket</text><text x="71.74" y="401.5" fill="#000" font-size="13" textLength="283.34">(estado Abierto, Prioridad Baja por defecto)</text><text x="102.418" y="416.633" fill="#000" font-size="13" textLength="221.984">y notifica al Supervisor del Equipo</text></g><?plantuml-src DO_1JW9138RlynGD9zP0l1j20eG3CL4YwqaCARDThSvErzak2J4-4YSVWHUpxCfbad_wz__wltD1G5MjHoYeyObhPOdEDOfACDYi7dRvQd6_p0U03QmJNIS-4QQS_IVfCEk6pmluTW0lDwym7a-Xv6ZAtaxPh_kvxlQ9kzbyjNpA7_jaQTGvo-_S5dK7a_rq8u4zAqQboUr-2bwgEf0YK81IKjK6J2pREDJpITiWesi9p-VVE09lk3T9vnDcS8GWGF5Wmbd-1NE1_eEuKQgmWnmmS86sR0qleBwaGSZEBmHcUwQanbeREvcrW3b-8DII35-ILycsyGXHb4ls21XWqzQK3jnqbW3BhvPh-GC0?></g></svg>