<svg xmlns="http://www.w3.org/2000/svg" xmlns:xlink="http://www.w3.org/1999/xlink" version="1.1" data-diagram-type="STATE" style="width:526px;height:459px;background:#FFFFFF;" width="526px" height="459px" viewBox="0 0 526 459" zoomAndPan="magnify" preserveAspectRatio="none" contentStyleType="text/css"><?plantuml 1.2026.7beta11?><defs/><g font-family="sans-serif" lengthAdjust="spacing"><rect x="7" y="7" width="159.741" height="40" fill="#F1F1F1" style="stroke:#181818;stroke-width:0.5;" rx="12.5" ry="12.5"/><text x="12" y="31.847" fill="#000" font-size="14" textLength="149.741">TICKET_SIN_ASIGNAR</text><g class="entity" data-qualified-name="UC" id="ent0002" data-source-line="4"><path d="M36.81,124 L136.94,124 A12.5,12.5 0 0 1 149.44,136.5 L149.44,150.297 L24.31,150.297 L24.31,136.5 A12.5,12.5 0 0 1 36.81,124" fill="#F1F1F1"/><rect x="24.31" y="124" width="125.13" height="204.297" fill="none" style="stroke:#181818;stroke-width:0.5;" rx="12.5" ry="12.5"/><line x1="24.31" y1="150.297" x2="149.44" y2="150.297" style="stroke:#181818;stroke-width:0.5;"/><text x="34.31" y="141.995" fill="#000" font-size="14" textLength="105.13">asignarTicket()</text><g class="start_entity" data-qualified-name="UC..start.UC" id="ent0004" data-source-line="5"><ellipse cx="61.31" cy="171.297" rx="10" ry="10" fill="#222" style="stroke:#222;stroke-width:1;"/></g><rect x="36.31" y="217.297" width="50" height="40" fill="#F1F1F1" style="stroke:#181818;stroke-width:0.5;" rx="12.5" ry="12.5"/><text x="52.464" y="242.144" fill="#000" font-size="14" textLength="17.691">fin</text><g class="end_entity" data-qualified-name="UC..end.UC" id="ent0007" data-source-line="6"><ellipse cx="61.31" cy="304.297" rx="11" ry="11" fill="none" style="stroke:#222;stroke-width:1;"/><ellipse cx="61.31" cy="304.297" rx="6" ry="6" fill="#222" style="stroke:#222;stroke-width:1;"/></g><!--link *start*UC to fin--><g class="link" data-entity-1="ent0004" data-entity-2="ent0005" id="lnk6" data-source-line="5" data-link-type="dependency"><path d="M61.31,181.737 C61.31,190.987 61.31,200.357 61.31,212.017" style="stroke:#181818;stroke-width:1;" fill="none" id="*start*UC-to-fin"/><polygon points="61.31,217.017,65.31,208.017,61.31,212.017,57.31,208.017,61.31,217.017" fill="#181818" style="stroke:#181818;stroke-width:1;stroke-linejoin:miter;stroke-miterlimit:10;"/></g><!--link fin to *end*UC--><g class="link" data-entity-1="ent0005" data-entity-2="ent0007" id="lnk8" data-source-line="6" data-link-type="dependency"><path d="M61.31,257.447 C61.31,269.127 61.31,278.597 61.31,288.127" style="stroke:#181818;stroke-width:1;" fill="none" id="fin-to-*end*UC"/><polygon points="61.31,293.127,65.31,284.127,61.31,288.127,57.31,284.127,61.31,293.127" fill="#181818" style="stroke:#181818;stroke-width:1;stroke-linejoin:miter;stroke-miterlimit:10;"/></g></g><rect x="16.21" y="405.3" width="141.325" height="40" fill="#F1F1F1" style="stroke:#181818;stroke-width:0.5;" rx="12.5" ry="12.5"/><text x="21.21" y="430.147" fill="#000" font-size="14" textLength="131.325">TICKET_ASIGNADO</text><!--link Pre to UC--><g class="link" data-entity-1="ent0001" data-entity-2="ent0002" id="lnk9" data-source-line="10" data-link-type="dependency"><path d="M86.87,47.27 C86.87,65.58 86.87,89.61 86.87,118.95" style="stroke:#181818;stroke-width:1;" fill="none" id="Pre-to-UC"/><polygon points="86.87,123.95,90.87,114.95,86.87,118.95,82.87,114.95,86.87,123.95" fill="#181818" style="stroke:#181818;stroke-width:1;stroke-linejoin:miter;stroke-miterlimit:10;"/><text x="87.87" y="90.067" fill="#000" font-size="13" textLength="79.162" font-weight="700">Supervisor</text><text x="171.164" y="90.067" fill="#000" font-size="13" textLength="338.965">elige un ticket sin asignar y un Agente de su Equipo</text></g><!--link UC to Post--><g class="link" data-entity-1="ent0002" data-entity-2="ent0003" id="lnk10" data-source-line="11" data-link-type="dependency"><path d="M86.87,328.61 C86.87,357.86 86.87,381.77 86.87,400.03" style="stroke:#181818;stroke-width:1;" fill="none" id="UC-to-Post"/><polygon points="86.87,405.03,90.87,396.03,86.87,400.03,82.87,396.03,86.87,405.03" fill="#181818" style="stroke:#181818;stroke-width:1;stroke-linejoin:miter;stroke-miterlimit:10;"/><text x="87.87" y="371.367" fill="#000" font-size="13" textLength="58.906" font-weight="700">Sistema</text><text x="150.909" y="371.367" fill="#000" font-size="13" textLength="348.175">asigna el ticket al Agente elegido y cambia su estado</text></g><?plantuml-src NS_1Yi8m40RWUvvYyBGAubsaK5oHik2AhQT596t7xc2Rr4mgYFZkEqtjPI-1cKo-F_DB9G8shNz0YLmuQZrPenHxxH4cMRB-scJdDDcTupJPxkB313J3tk4uePagerr6nHNznpHS7zVmL00_inFCvn5So4WbPwYagrx__C7-_1vmorufYGZZOYrXbKTfrwAx4rktMkGHO4qLGcV0Xs1WqTzVWKVVZoiqaY3RSGURMqUjLMBrP1_mHeazDZg8msk1HrBN8u8rLbHQWGlTvAHx4cM3qlu1?></g></svg>