<svg xmlns="http://www.w3.org/2000/svg" xmlns:xlink="http://www.w3.org/1999/xlink" version="1.1" data-diagram-type="CLASS" style="width:655px;height:500px;background:#FFFFFF;" width="655px" height="500px" viewBox="0 0 655 500" zoomAndPan="magnify" preserveAspectRatio="none" contentStyleType="text/css"><?plantuml 1.2026.7beta11?><defs/><g font-family="sans-serif" lengthAdjust="spacing"><!--class TicketActionsView--><g class="entity" data-qualified-name="TicketActionsView" id="ent0001" data-source-line="4"><rect x="188.42" y="7" width="187.451" height="64.563" fill="#F1F1F1" style="stroke:#181818;stroke-width:0.5;" rx="2.5" ry="2.5"/><ellipse cx="216.104" cy="27.133" rx="11" ry="11" fill="#ADD1B2" style="stroke:#181818;stroke-width:1;"/><path d="M219.073,32.773 Q218.495,33.07 217.854,33.211 Q217.213,33.367 216.51,33.367 Q214.01,33.367 212.682,31.727 Q211.37,30.07 211.37,26.945 Q211.37,23.82 212.682,22.164 Q214.01,20.508 216.51,20.508 Q217.213,20.508 217.854,20.664 Q218.51,20.82 219.073,21.117 L219.073,23.836 Q218.448,23.258 217.854,22.992 Q217.26,22.711 216.635,22.711 Q215.291,22.711 214.604,23.789 Q213.916,24.852 213.916,26.945 Q213.916,29.039 214.604,30.117 Q215.291,31.18 216.635,31.18 Q217.26,31.18 217.854,30.914 Q218.448,30.633 219.073,30.055 L219.073,32.773 Z " fill="#000"/><text x="274.843" y="23.139" fill="#000" font-size="12" textLength="43.424" font-style="italic">«View»</text><text x="232.923" y="38.964" fill="#000" font-size="14" textLength="127.265">TicketActionsView</text><line x1="189.42" y1="47.266" x2="374.871" y2="47.266" style="stroke:#181818;stroke-width:0.5;"/><text x="194.42" y="64.261" fill="#000" font-size="14" textLength="175.451">+confirmarAccion(datos)</text></g><!--class TicketController--><g class="entity" data-qualified-name="TicketController" id="ent0002" data-source-line="8"><rect x="166.95" y="132.56" width="230.395" height="194.938" fill="#F1F1F1" style="stroke:#181818;stroke-width:0.5;" rx="2.5" ry="2.5"/><ellipse cx="222.137" cy="152.693" rx="11" ry="11" fill="#ADD1B2" style="stroke:#181818;stroke-width:1;"/><path d="M225.105,158.333 Q224.527,158.63 223.887,158.771 Q223.246,158.927 222.543,158.927 Q220.043,158.927 218.715,157.287 Q217.402,155.63 217.402,152.505 Q217.402,149.38 218.715,147.724 Q220.043,146.068 222.543,146.068 Q223.246,146.068 223.887,146.224 Q224.543,146.38 225.105,146.677 L225.105,149.396 Q224.48,148.818 223.887,148.552 Q223.293,148.271 222.668,148.271 Q221.324,148.271 220.637,149.349 Q219.949,150.412 219.949,152.505 Q219.949,154.599 220.637,155.677 Q221.324,156.74 222.668,156.74 Q223.293,156.74 223.887,156.474 Q224.48,156.193 225.105,155.615 L225.105,158.333 Z " fill="#000"/><text x="261.41" y="148.699" fill="#000" font-size="12" textLength="73.975" font-style="italic">«Controller»</text><text x="242.637" y="164.524" fill="#000" font-size="14" textLength="111.521">TicketController</text><line x1="167.95" y1="172.826" x2="396.345" y2="172.826" style="stroke:#181818;stroke-width:0.5;"/><text x="172.95" y="189.821" fill="#000" font-size="14" textLength="97.87">+crear(datos)</text><text x="172.95" y="206.118" fill="#000" font-size="14" textLength="116.983">+tomar(ticketId)</text><text x="172.95" y="222.414" fill="#000" font-size="14" textLength="131.729">+resolver(ticketId)</text><text x="172.95" y="238.711" fill="#000" font-size="14" textLength="182.697">+escalar(ticketId, motivo)</text><text x="172.95" y="255.008" fill="#000" font-size="14" textLength="197.784">+asignar(ticketId, agenteId)</text><text x="172.95" y="271.305" fill="#000" font-size="14" textLength="212.153">+reasignar(ticketId, agenteId)</text><text x="172.95" y="287.602" fill="#000" font-size="14" textLength="218.395">+priorizar(ticketId, prioridadId)</text><text x="172.95" y="303.899" fill="#000" font-size="14" textLength="185.042">+confirmarCierre(ticketId)</text><text x="172.95" y="320.196" fill="#000" font-size="14" textLength="179.525">+reabrir(ticketId, motivo)</text></g><!--class Ticket--><g class="entity" data-qualified-name="Ticket" id="ent0003" data-source-line="20"><rect x="7" y="404.5" width="168.297" height="80.859" fill="#F1F1F1" style="stroke:#181818;stroke-width:0.5;" rx="2.5" ry="2.5"/><ellipse cx="63.542" cy="424.633" rx="11" ry="11" fill="#ADD1B2" style="stroke:#181818;stroke-width:1;"/><path d="M66.511,430.273 Q65.933,430.57 65.292,430.711 Q64.651,430.867 63.948,430.867 Q61.448,430.867 60.12,429.227 Q58.808,427.57 58.808,424.445 Q58.808,421.32 60.12,419.664 Q61.448,418.008 63.948,418.008 Q64.651,418.008 65.292,418.164 Q65.948,418.32 66.511,418.617 L66.511,421.336 Q65.886,420.758 65.292,420.492 Q64.698,420.211 64.073,420.211 Q62.729,420.211 62.042,421.289 Q61.354,422.352 61.354,424.445 Q61.354,426.539 62.042,427.617 Q62.729,428.68 64.073,428.68 Q64.698,428.68 65.292,428.414 Q65.886,428.133 66.511,427.555 L66.511,430.273 Z " fill="#000"/><text x="82.042" y="420.639" fill="#000" font-size="12" textLength="50.713" font-style="italic">«Model»</text><text x="86.224" y="436.464" fill="#000" font-size="14" textLength="42.349">Ticket</text><line x1="8" y1="444.766" x2="174.297" y2="444.766" style="stroke:#181818;stroke-width:0.5;"/><text x="13" y="461.761" fill="#000" font-size="14" textLength="59.158">+estado</text><text x="13" y="478.058" fill="#000" font-size="14" textLength="156.297">+prioridadConfirmada</text></g><!--class EventoAuditoria--><g class="entity" data-qualified-name="EventoAuditoria" id="ent0004" data-source-line="24"><rect x="210.06" y="424.8" width="144.178" height="40.266" fill="#F1F1F1" style="stroke:#181818;stroke-width:0.5;" rx="2.5" ry="2.5"/><ellipse cx="225.06" cy="444.933" rx="11" ry="11" fill="#ADD1B2" style="stroke:#181818;stroke-width:1;"/><path d="M228.029,450.573 Q227.451,450.87 226.81,451.011 Q226.169,451.167 225.466,451.167 Q222.966,451.167 221.638,449.527 Q220.326,447.87 220.326,444.745 Q220.326,441.62 221.638,439.964 Q222.966,438.308 225.466,438.308 Q226.169,438.308 226.81,438.464 Q227.466,438.62 228.029,438.917 L228.029,441.636 Q227.404,441.058 226.81,440.792 Q226.216,440.511 225.591,440.511 Q224.248,440.511 223.56,441.589 Q222.873,442.652 222.873,444.745 Q222.873,446.839 223.56,447.917 Q224.248,448.98 225.591,448.98 Q226.216,448.98 226.81,448.714 Q227.404,448.433 228.029,447.855 L228.029,450.573 Z " fill="#000"/><text x="269.792" y="440.939" fill="#000" font-size="12" textLength="50.713" font-style="italic">«Model»</text><text x="239.06" y="456.764" fill="#000" font-size="14" textLength="112.178">EventoAuditoria</text></g><!--class Notificacion--><g class="entity" data-qualified-name="Notificacion" id="ent0005" data-source-line="25"><rect x="388.88" y="424.8" width="114.537" height="40.266" fill="#F1F1F1" style="stroke:#181818;stroke-width:0.5;" rx="2.5" ry="2.5"/><ellipse cx="403.88" cy="444.933" rx="11" ry="11" fill="#ADD1B2" style="stroke:#181818;stroke-width:1;"/><path d="M406.849,450.573 Q406.271,450.87 405.63,451.011 Q404.989,451.167 404.286,451.167 Q401.786,451.167 400.458,449.527 Q399.146,447.87 399.146,444.745 Q399.146,441.62 400.458,439.964 Q401.786,438.308 404.286,438.308 Q404.989,438.308 405.63,438.464 Q406.286,438.62 406.849,438.917 L406.849,441.636 Q406.224,441.058 405.63,440.792 Q405.036,440.511 404.411,440.511 Q403.068,440.511 402.38,441.589 Q401.693,442.652 401.693,444.745 Q401.693,446.839 402.38,447.917 Q403.068,448.98 404.411,448.98 Q405.036,448.98 405.63,448.714 Q406.224,448.433 406.849,447.855 L406.849,450.573 Z " fill="#000"/><text x="433.792" y="440.939" fill="#000" font-size="12" textLength="50.713" font-style="italic">«Model»</text><text x="417.88" y="456.764" fill="#000" font-size="14" textLength="82.537">Notificacion</text></g><!--link TicketActionsView to TicketController--><g class="link" data-entity-1="ent0001" data-entity-2="ent0002" id="lnk6" data-source-line="27" data-link-type="dependency"><path d="M282.15,71.87 C282.15,88.67 282.15,105.31 282.15,127.13" style="stroke:#181818;stroke-width:1;" fill="none" id="TicketActionsView-to-TicketController" codeLine="27"/><polygon points="282.15,132.13,286.15,123.13,282.15,127.13,278.15,123.13,282.15,132.13" fill="#181818" style="stroke:#181818;stroke-width:1;stroke-linejoin:miter;stroke-miterlimit:10;"/></g><!--link TicketController to Ticket--><g class="link" data-entity-1="ent0002" data-entity-2="ent0003" id="lnk7" data-source-line="28" data-link-type="dependency"><path d="M166.62,322.5 C155.35,333.69 144.61,345.45 135.15,357.5 C124.13,371.54 116.83,384.251 109.55,399.621" style="stroke:#181818;stroke-width:1;" fill="none" id="TicketController-to-Ticket" codeLine="28"/><polygon points="107.41,404.14,114.878,397.718,109.55,399.621,107.648,394.294,107.41,404.14" fill="#181818" style="stroke:#181818;stroke-width:1;stroke-linejoin:miter;stroke-miterlimit:10;"/><text x="136.15" y="370.567" fill="#000" font-size="13" textLength="137.198">valida estado y muta</text></g><!--link TicketController to EventoAuditoria--><g class="link" data-entity-1="ent0002" data-entity-2="ent0004" id="lnk8" data-source-line="29" data-link-type="dependency"><path d="M282.15,327.83 C282.15,364.29 282.15,397.29 282.15,419.49" style="stroke:#181818;stroke-width:1;" fill="none" id="TicketController-to-EventoAuditoria" codeLine="29"/><polygon points="282.15,424.49,286.15,415.49,282.15,419.49,278.15,415.49,282.15,424.49" fill="#181818" style="stroke:#181818;stroke-width:1;stroke-linejoin:miter;stroke-miterlimit:10;"/><text x="283.15" y="370.567" fill="#000" font-size="13" textLength="50.388">registra</text></g><!--link TicketController to Notificacion--><g class="link" data-entity-1="ent0002" data-entity-2="ent0005" id="lnk9" data-source-line="30" data-link-type="dependency"><path d="M356.71,327.83 C384.8,364.29 411.019,398.329 428.119,420.529" style="stroke:#181818;stroke-width:1;" fill="none" id="TicketController-to-Notificacion" codeLine="30"/><polygon points="431.17,424.49,428.847,414.919,428.119,420.529,422.509,419.801,431.17,424.49" fill="#181818" style="stroke:#181818;stroke-width:1;stroke-linejoin:miter;stroke-miterlimit:10;"/><text x="389.15" y="370.567" fill="#000" font-size="13" textLength="250.263">dispara según la regla del caso de uso</text></g><?plantuml-src XL8zJyD03DtpApmMGINcggeKLGmTO06nktTki7h9LVObY2B-62j_33VzI9CMiUHoVk_Pp_QziIUWSfC-eAHoIQAPhhdQe609Bg1gdfBmiawqSB5wvYt1VPQr2BomMrFANU9OwIlJEqodksCsWyyCuDO4AvOI9NVEA2EFAUfDzjNNpsEL98P0OlBkSaeYX7AKsZr5IpXAhNJXsv2Gnj3G84hgC9nHxw2CYPlOWgXSL3qG2wgioMF6VmWRuIYyxH7sCO_-m3crFsSIeQ5dN0fVSpSOZmtbCNeAntcG9lInys3rveT27asyrpuqPZRcjUTa7EoI7F0dAxPYXxkzd87PvKh7uzd5ehABpNKic423mMp1tYdOoweJNfSCRKv0g61DyWU_Pti2ddNtKa6f-Fck8E1ERbzh1Xngj1-eDVu2?></g></svg>