<svg xmlns="http://www.w3.org/2000/svg" xmlns:xlink="http://www.w3.org/1999/xlink" version="1.1" data-diagram-type="CLASS" style="width:343px;height:345px;background:#FFFFFF;" width="343px" height="345px" viewBox="0 0 343 345" zoomAndPan="magnify" preserveAspectRatio="none" contentStyleType="text/css"><?plantuml 1.2026.7beta11?><defs/><g font-family="sans-serif" lengthAdjust="spacing"><!--class ArticleListView--><g class="entity" data-qualified-name="ArticleListView" id="ent0001" data-source-line="4"><rect x="7" y="7" width="134.915" height="40.266" fill="#F1F1F1" style="stroke:#181818;stroke-width:0.5;" rx="2.5" ry="2.5"/><ellipse cx="22" cy="27.133" rx="11" ry="11" fill="#ADD1B2" style="stroke:#181818;stroke-width:1;"/><path d="M24.969,32.773 Q24.391,33.07 23.75,33.211 Q23.109,33.367 22.406,33.367 Q19.906,33.367 18.578,31.727 Q17.266,30.07 17.266,26.945 Q17.266,23.82 18.578,22.164 Q19.906,20.508 22.406,20.508 Q23.109,20.508 23.75,20.664 Q24.406,20.82 24.969,21.117 L24.969,23.836 Q24.344,23.258 23.75,22.992 Q23.156,22.711 22.531,22.711 Q21.188,22.711 20.5,23.789 Q19.813,24.852 19.813,26.945 Q19.813,29.039 20.5,30.117 Q21.188,31.18 22.531,31.18 Q23.156,31.18 23.75,30.914 Q24.344,30.633 24.969,30.055 L24.969,32.773 Z " fill="#000"/><text x="65.746" y="23.139" fill="#000" font-size="12" textLength="43.424" font-style="italic">«View»</text><text x="36" y="38.964" fill="#000" font-size="14" textLength="102.915">ArticleListView</text></g><!--class ArticleDetailView--><g class="entity" data-qualified-name="ArticleDetailView" id="ent0002" data-source-line="5"><rect x="176.62" y="7" width="151.684" height="40.266" fill="#F1F1F1" style="stroke:#181818;stroke-width:0.5;" rx="2.5" ry="2.5"/><ellipse cx="191.62" cy="27.133" rx="11" ry="11" fill="#ADD1B2" style="stroke:#181818;stroke-width:1;"/><path d="M194.589,32.773 Q194.011,33.07 193.37,33.211 Q192.729,33.367 192.026,33.367 Q189.526,33.367 188.198,31.727 Q186.886,30.07 186.886,26.945 Q186.886,23.82 188.198,22.164 Q189.526,20.508 192.026,20.508 Q192.729,20.508 193.37,20.664 Q194.026,20.82 194.589,21.117 L194.589,23.836 Q193.964,23.258 193.37,22.992 Q192.776,22.711 192.151,22.711 Q190.808,22.711 190.12,23.789 Q189.433,24.852 189.433,26.945 Q189.433,29.039 190.12,30.117 Q190.808,31.18 192.151,31.18 Q192.776,31.18 193.37,30.914 Q193.964,30.633 194.589,30.055 L194.589,32.773 Z " fill="#000"/><text x="243.75" y="23.139" fill="#000" font-size="12" textLength="43.424" font-style="italic">«View»</text><text x="205.62" y="38.964" fill="#000" font-size="14" textLength="119.684">ArticleDetailView</text></g><!--class KnowledgeBaseController--><g class="entity" data-qualified-name="KnowledgeBaseController" id="ent0003" data-source-line="7"><rect x="43.56" y="108.27" width="239.801" height="80.859" fill="#F1F1F1" style="stroke:#181818;stroke-width:0.5;" rx="2.5" ry="2.5"/><ellipse cx="70.97" cy="128.403" rx="11" ry="11" fill="#ADD1B2" style="stroke:#181818;stroke-width:1;"/><path d="M73.939,134.043 Q73.361,134.34 72.72,134.481 Q72.08,134.637 71.376,134.637 Q68.876,134.637 67.548,132.997 Q66.236,131.34 66.236,128.215 Q66.236,125.09 67.548,123.434 Q68.876,121.778 71.376,121.778 Q72.08,121.778 72.72,121.934 Q73.376,122.09 73.939,122.387 L73.939,125.106 Q73.314,124.528 72.72,124.262 Q72.126,123.981 71.501,123.981 Q70.158,123.981 69.47,125.059 Q68.783,126.122 68.783,128.215 Q68.783,130.309 69.47,131.387 Q70.158,132.45 71.501,132.45 Q72.126,132.45 72.72,132.184 Q73.314,131.903 73.939,131.325 L73.939,134.043 Z " fill="#000"/><text x="140.852" y="124.409" fill="#000" font-size="12" textLength="73.975" font-style="italic">«Controller»</text><text x="87.728" y="140.234" fill="#000" font-size="14" textLength="180.223">KnowledgeBaseController</text><line x1="44.56" y1="148.536" x2="282.361" y2="148.536" style="stroke:#181818;stroke-width:0.5;"/><text x="49.56" y="165.531" fill="#000" font-size="14" textLength="175.26">+ver(articuloId, rolActor)</text><text x="49.56" y="181.828" fill="#000" font-size="14" textLength="227.801">+listar(rolActor, textoBusqueda)</text></g><!--class ArticuloConocimiento--><g class="entity" data-qualified-name="ArticuloConocimiento" id="ent0004" data-source-line="12"><rect x="72.37" y="266.13" width="182.172" height="64.563" fill="#F1F1F1" style="stroke:#181818;stroke-width:0.5;" rx="2.5" ry="2.5"/><ellipse cx="87.37" cy="286.263" rx="11" ry="11" fill="#ADD1B2" style="stroke:#181818;stroke-width:1;"/><path d="M90.339,291.903 Q89.761,292.2 89.12,292.341 Q88.479,292.497 87.776,292.497 Q85.276,292.497 83.948,290.857 Q82.636,289.2 82.636,286.075 Q82.636,282.95 83.948,281.294 Q85.276,279.638 87.776,279.638 Q88.479,279.638 89.12,279.794 Q89.776,279.95 90.339,280.247 L90.339,282.966 Q89.714,282.388 89.12,282.122 Q88.526,281.841 87.901,281.841 Q86.558,281.841 85.87,282.919 Q85.183,283.982 85.183,286.075 Q85.183,288.169 85.87,289.247 Q86.558,290.31 87.901,290.31 Q88.526,290.31 89.12,290.044 Q89.714,289.763 90.339,289.185 L90.339,291.903 Z " fill="#000"/><text x="151.099" y="282.269" fill="#000" font-size="12" textLength="50.713" font-style="italic">«Model»</text><text x="101.37" y="298.094" fill="#000" font-size="14" textLength="150.172">ArticuloConocimiento</text><line x1="73.37" y1="306.396" x2="253.542" y2="306.396" style="stroke:#181818;stroke-width:0.5;"/><text x="78.37" y="323.391" fill="#000" font-size="14" textLength="81.997">+visibilidad</text></g><!--link ArticleListView to KnowledgeBaseController--><g class="link" data-entity-1="ent0001" data-entity-2="ent0003" id="lnk5" data-source-line="16" data-link-type="dependency"><path d="M88.95,47.61 C101.07,63.89 115.753,83.62 130.853,103.89" style="stroke:#181818;stroke-width:1;" fill="none" id="ArticleListView-to-KnowledgeBaseController" codeLine="16"/><polygon points="133.84,107.9,131.671,98.293,130.853,103.89,125.256,103.072,133.84,107.9" fill="#181818" style="stroke:#181818;stroke-width:1;stroke-linejoin:miter;stroke-miterlimit:10;"/></g><!--link ArticleDetailView to KnowledgeBaseController--><g class="link" data-entity-1="ent0002" data-entity-2="ent0003" id="lnk6" data-source-line="17" data-link-type="dependency"><path d="M237.96,47.61 C225.84,63.89 211.156,83.619 196.066,103.889" style="stroke:#181818;stroke-width:1;" fill="none" id="ArticleDetailView-to-KnowledgeBaseController" codeLine="17"/><polygon points="193.08,107.9,201.663,103.069,196.066,103.889,195.246,98.292,193.08,107.9" fill="#181818" style="stroke:#181818;stroke-width:1;stroke-linejoin:miter;stroke-miterlimit:10;"/></g><!--link KnowledgeBaseController to ArticuloConocimiento--><g class="link" data-entity-1="ent0003" data-entity-2="ent0004" id="lnk7" data-source-line="18" data-link-type="dependency"><path d="M163.46,189.28 C163.46,213.21 163.46,238.3 163.46,260.66" style="stroke:#181818;stroke-width:1;" fill="none" id="KnowledgeBaseController-to-ArticuloConocimiento" codeLine="18"/><polygon points="163.46,265.66,167.46,256.66,163.46,260.66,159.46,256.66,163.46,265.66" fill="#181818" style="stroke:#181818;stroke-width:1;stroke-linejoin:miter;stroke-miterlimit:10;"/><text x="164.46" y="232.197" fill="#000" font-size="13" textLength="158.139">filtra por visibilidad y rol</text></g><?plantuml-src VP3DJWCn38JlUGeVMz5Ad54LQGkNgd12ufvD35XurulZfHJ4kvCW_XOefoYPyVYRt592m6wmFNJOjQZPvJlgXw2XWyWXvyPCgHqDDr7wItf2E7RkJO56ZIBZEMMx8jp1QbKFxwVo6LeWdXhU7TjUTepf1jSXuwdqfiACMdnV5-_XsG4SFQ3EGaqSMJPf0KLjeedEgyW58UZiusq1Xeycwp7VZvZ2tBrCa4j2oPT87M5lKjPTI4B-t4IPMc9A8TN1dosNIty8tFsk_9_xKFqwyoVe2LmJcmOOHE4R9kphTxm2?></g></svg>