<svg xmlns="http://www.w3.org/2000/svg" xmlns:xlink="http://www.w3.org/1999/xlink" version="1.1" data-diagram-type="DESCRIPTION" style="width:904px;height:225px;background:#FFFFFF;" width="904px" height="225px" viewBox="0 0 904 225" zoomAndPan="magnify" preserveAspectRatio="none" contentStyleType="text/css"><?plantuml 1.2026.7beta11?><defs/><g font-family="sans-serif" lengthAdjust="spacing"><!--cluster Reportes--><g class="cluster" data-qualified-name="Reportes" id="ent0007" data-source-line="16"><path d="M303.95,6 L376.29,6 A3.75,3.75 0 0 1 378.79,8.5 L385.79,28.297 L544.05,28.297 A2.5,2.5 0 0 1 546.55,30.797 L546.55,102.5 A2.5,2.5 0 0 1 544.05,105 L303.95,105 A2.5,2.5 0 0 1 301.45,102.5 L301.45,8.5 A2.5,2.5 0 0 1 303.95,6" style="stroke:#000;stroke-width:1.5;" fill="none"/><line x1="301.45" y1="28.297" x2="385.79" y2="28.297" style="stroke:#000;stroke-width:1.5;"/><text x="305.45" y="20.995" fill="#000" font-size="14" textLength="71.34" font-weight="700">Reportes</text></g><!--cluster Tickets--><g class="cluster" data-qualified-name="Tickets" id="ent0009" data-source-line="20"><path d="M711.86,58 L769.339,58 A3.75,3.75 0 0 1 771.839,60.5 L778.839,80.297 L887.43,80.297 A2.5,2.5 0 0 1 889.93,82.797 L889.93,207.5 A2.5,2.5 0 0 1 887.43,210 L711.86,210 A2.5,2.5 0 0 1 709.36,207.5 L709.36,60.5 A2.5,2.5 0 0 1 711.86,58" style="stroke:#000;stroke-width:1.5;" fill="none"/><line x1="709.36" y1="80.297" x2="778.839" y2="80.297" style="stroke:#000;stroke-width:1.5;"/><text x="713.36" y="72.995" fill="#000" font-size="14" textLength="56.479" font-weight="700">Tickets</text></g><!--entity UC20--><g class="entity" data-qualified-name="Reportes.UC20" id="ent0008" data-source-line="17"><ellipse cx="423.999" cy="65" rx="106.549" ry="23.71" fill="#F1F1F1" style="stroke:#181818;stroke-width:0.5;"/><text x="328.802" y="69.648" fill="#000" font-size="14" textLength="190.395">Ver Dashboard de Métricas</text></g><!--entity UC18--><g class="entity" data-qualified-name="Tickets.UC18" id="ent0010" data-source-line="21"><ellipse cx="799.644" cy="178.003" rx="67.364" ry="15.873" fill="#F1F1F1" style="stroke:#181818;stroke-width:0.5;"/><text x="749.816" y="182.651" fill="#000" font-size="14" textLength="99.654">Asignar Ticket</text></g><!--entity UC19--><g class="entity" data-qualified-name="Tickets.UC19" id="ent0011" data-source-line="22"><ellipse cx="799.638" cy="109.998" rx="74.288" ry="17.258" fill="#F1F1F1" style="stroke:#181818;stroke-width:0.5;"/><text x="741.14" y="114.646" fill="#000" font-size="14" textLength="116.997">Reasignar Ticket</text></g><!--entity Agente--><g class="entity" data-qualified-name="Agente" id="ent0001" data-source-line="6"><ellipse cx="423.998" cy="132.35" rx="8" ry="8" fill="#F1F1F1" style="stroke:#181818;stroke-width:0.5;"/><path d="M423.998,140.35 L423.998,167.35 M410.998,148.35 L436.998,148.35 M423.998,167.35 L410.998,182.35 M423.998,167.35 L436.998,182.35" style="stroke:#181818;stroke-width:0.5;" fill="none"/><text x="358.39" y="196.845" fill="#000" font-size="14" textLength="131.216">Agente de Soporte</text></g><!--entity Supervisor--><g class="entity" data-qualified-name="Supervisor" id="ent0002" data-source-line="7"><ellipse cx="627.953" cy="114.35" rx="8" ry="8" fill="#F1F1F1" style="stroke:#181818;stroke-width:0.5;"/><path d="M627.953,122.35 L627.953,149.35 M614.953,130.35 L640.953,130.35 M627.953,149.35 L614.953,164.35 M627.953,149.35 L640.953,164.35" style="stroke:#181818;stroke-width:0.5;" fill="none"/><text x="590.55" y="178.845" fill="#000" font-size="14" textLength="74.806">Supervisor</text></g><g class="entity" data-qualified-name="GMN4" id="ent0005" data-source-line="11"><path d="M6,134.3 L6,189.698 A0,0 0 0 0 6,189.698 L257.452,189.698 A0,0 0 0 0 257.452,189.698 L257.452,166 L358.09,162 L257.452,158 L257.452,144.3 L247.452,134.3 L6,134.3 A0,0 0 0 0 6,134.3" style="stroke:#181818;stroke-width:0.5;" fill="#FEFFDD"/><path d="M247.452,134.3 L247.452,144.3 L257.452,144.3 L247.452,134.3" style="stroke:#181818;stroke-width:0.5;" fill="#FEFFDD"/><text x="12" y="151.367" fill="#000" font-size="13" textLength="182.025">Supervisor hereda todos los</text><text x="12" y="166.5" fill="#000" font-size="13" textLength="230.452">casos de uso de Agente de Soporte</text><text x="12" y="181.633" fill="#000" font-size="13" textLength="218.467">(y transitivamente de Solicitante)</text></g><!--reverse link Agente to Supervisor--><g class="link" data-entity-1="ent0001" data-entity-2="ent0002" id="lnk3" data-source-line="8" data-link-type="extension"><path d="M507.939,154.612 C541.149,151.652 562.4,149.75 590.32,147.26" style="stroke:#181818;stroke-width:1;" fill="none" id="Agente-backto-Supervisor"/><polygon points="490.01,156.21,508.472,160.588,507.406,148.636,490.01,156.21" fill="none" style="stroke:#181818;stroke-width:1;stroke-linejoin:miter;stroke-miterlimit:10;"/></g><!--link UC20 to Supervisor--><g class="link" data-entity-1="ent0008" data-entity-2="ent0002" id="lnk12" data-source-line="25" data-link-type="association"><path d="M491.72,83.64 C512.15,90.01 534.52,97.65 554.55,106 C566.47,110.97 579.07,117.21 590.35,123.19" style="stroke:#181818;stroke-width:1;" fill="none" id="UC20-Supervisor"/></g><!--link Supervisor to UC18--><g class="link" data-entity-1="ent0002" data-entity-2="ent0010" id="lnk13" data-source-line="27" data-link-type="association"><path d="M665.77,151.38 C689.56,156.14 720.85,162.41 747.09,167.67" style="stroke:#181818;stroke-width:1;" fill="none" id="Supervisor-UC18"/></g><!--link Supervisor to UC19--><g class="link" data-entity-1="ent0002" data-entity-2="ent0011" id="lnk14" data-source-line="28" data-link-type="association"><path d="M665.77,136.62 C688.1,132.15 717.03,126.35 742.2,121.31" style="stroke:#181818;stroke-width:1;" fill="none" id="Supervisor-UC19"/></g><?plantuml-src RP0zKiD038NxFON63L240Ie2D1cWf4c0NkmgjeXPERlh3By7ekO8kHXQnqmy2QMUllVqKzCyGH88N5O970UoYSKRSm2tDKXmvC5H3ObUbTAYHi0ebj7o-iU35P-2gAXCZKuke6XmsL8Y68rWOfE4GhDgqPHdjMO_lozRfk3m4egEo6ZlAZQ88rsamcDZi0EAIKbUCnt1J1e97HXXe_RCh6qeh3XAC3rzzQd10zbuKRNE9ylypmm30YgTwr0VuYJgqb6xLi-DUN0Ryn6mjuaoXs-G0lh8YLVuiktNR3cXbaU6l8CytfW6xG9BWYbrzWWVcj16qa44nIC5kC5OFGa6brFkrjyfi3QxYn-kpqxCrpRadks2qax697BfCVJDtdTwFaIcXFz2unoUXy3EwmPFqauNjoUDVm40?></g></svg>