<svg xmlns="http://www.w3.org/2000/svg" xmlns:xlink="http://www.w3.org/1999/xlink" version="1.1" data-diagram-type="STATE" style="width:386px;height:459px;background:#FFFFFF;" width="386px" height="459px" viewBox="0 0 386 459" zoomAndPan="magnify" preserveAspectRatio="none" contentStyleType="text/css"><?plantuml 1.2026.7beta11?><defs/><g font-family="sans-serif" lengthAdjust="spacing"><rect x="7" y="7" width="147.423" height="40" fill="#F1F1F1" style="stroke:#181818;stroke-width:0.5;" rx="12.5" ry="12.5"/><text x="12" y="31.847" fill="#000" font-size="14" textLength="137.423">EQUIPO_EXISTENTE</text><g class="entity" data-qualified-name="UC" id="ent0002" data-source-line="4"><path d="M42.45,124 L118.975,124 A12.5,12.5 0 0 1 131.475,136.5 L131.475,150.297 L29.95,150.297 L29.95,136.5 A12.5,12.5 0 0 1 42.45,124" fill="#F1F1F1"/><rect x="29.95" y="124" width="101.525" height="204.297" fill="none" style="stroke:#181818;stroke-width:0.5;" rx="12.5" ry="12.5"/><line x1="29.95" y1="150.297" x2="131.475" y2="150.297" style="stroke:#181818;stroke-width:0.5;"/><text x="39.95" y="141.995" fill="#000" font-size="14" textLength="81.525">verEquipo()</text><g class="start_entity" data-qualified-name="UC..start.UC" id="ent0004" data-source-line="5"><ellipse cx="66.95" cy="171.297" rx="10" ry="10" fill="#222" style="stroke:#222;stroke-width:1;"/></g><rect x="41.95" y="217.297" width="50" height="40" fill="#F1F1F1" style="stroke:#181818;stroke-width:0.5;" rx="12.5" ry="12.5"/><text x="58.104" y="242.144" fill="#000" font-size="14" textLength="17.691">fin</text><g class="end_entity" data-qualified-name="UC..end.UC" id="ent0007" data-source-line="6"><ellipse cx="66.95" cy="304.297" rx="11" ry="11" fill="none" style="stroke:#222;stroke-width:1;"/><ellipse cx="66.95" cy="304.297" rx="6" ry="6" fill="#222" style="stroke:#222;stroke-width:1;"/></g><!--link *start*UC to fin--><g class="link" data-entity-1="ent0004" data-entity-2="ent0005" id="lnk6" data-source-line="5" data-link-type="dependency"><path d="M66.95,181.737 C66.95,190.987 66.95,200.357 66.95,212.017" style="stroke:#181818;stroke-width:1;" fill="none" id="*start*UC-to-fin"/><polygon points="66.95,217.017,70.95,208.017,66.95,212.017,62.95,208.017,66.95,217.017" fill="#181818" style="stroke:#181818;stroke-width:1;stroke-linejoin:miter;stroke-miterlimit:10;"/></g><!--link fin to *end*UC--><g class="link" data-entity-1="ent0005" data-entity-2="ent0007" id="lnk8" data-source-line="6" data-link-type="dependency"><path d="M66.95,257.447 C66.95,269.127 66.95,278.597 66.95,288.127" style="stroke:#181818;stroke-width:1;" fill="none" id="fin-to-*end*UC"/><polygon points="66.95,293.127,70.95,284.127,66.95,288.127,62.95,284.127,66.95,293.127" fill="#181818" style="stroke:#181818;stroke-width:1;stroke-linejoin:miter;stroke-miterlimit:10;"/></g></g><rect x="14.63" y="405.3" width="132.172" height="40" fill="#F1F1F1" style="stroke:#181818;stroke-width:0.5;" rx="12.5" ry="12.5"/><text x="19.63" y="430.147" fill="#000" font-size="14" textLength="122.172">DETALLE_VISIBLE</text><!--link Pre to UC--><g class="link" data-entity-1="ent0001" data-entity-2="ent0002" id="lnk9" data-source-line="10" data-link-type="dependency"><path d="M80.71,47.27 C80.71,65.58 80.71,89.61 80.71,118.95" style="stroke:#181818;stroke-width:1;" fill="none" id="Pre-to-UC"/><polygon points="80.71,123.95,84.71,114.95,80.71,118.95,76.71,114.95,80.71,123.95" fill="#181818" style="stroke:#181818;stroke-width:1;stroke-linejoin:miter;stroke-miterlimit:10;"/><text x="81.71" y="90.067" fill="#000" font-size="13" textLength="104.863" font-weight="700">Administrador</text><text x="190.706" y="90.067" fill="#000" font-size="13" textLength="170.219">abre un Equipo del listado</text></g><!--link UC to Post--><g class="link" data-entity-1="ent0002" data-entity-2="ent0003" id="lnk10" data-source-line="11" data-link-type="dependency"><path d="M80.71,328.61 C80.71,357.86 80.71,381.77 80.71,400.03" style="stroke:#181818;stroke-width:1;" fill="none" id="UC-to-Post"/><polygon points="80.71,405.03,84.71,396.03,80.71,400.03,76.71,396.03,80.71,405.03" fill="#181818" style="stroke:#181818;stroke-width:1;stroke-linejoin:miter;stroke-miterlimit:10;"/><text x="81.71" y="371.367" fill="#000" font-size="13" textLength="58.906" font-weight="700">Sistema</text><text x="144.749" y="371.367" fill="#000" font-size="13" textLength="225.615">muestra el Equipo y sus miembros</text></g><?plantuml-src DOxB2i8m44Nt-OgBAnN4lKZ1HnQ5ueDM4KGajIC6J5EJL2ZYlpkjkXcOkVUSvAOB0fagD2Z8NvokWhQb43weGEZ9xIxUhC_o4AUPN6Mo1-MnSVJFd-JaezQLxG-wQBV0Im37uGcZKOIhBddZsMry5Uy_kPJPB4daUH-dyJpvYQqFGh2-gxDhWcaUpGgZI-s3KuLrqt4UGULSgKjyd-QFtt7d0kU2ePPjJLywvO2CwZXJKwi1ztze0rzx64qcTzP_0000?></g></svg>