<svg xmlns="http://www.w3.org/2000/svg" xmlns:xlink="http://www.w3.org/1999/xlink" version="1.1" data-diagram-type="STATE" style="width:495px;height:459px;background:#FFFFFF;" width="495px" height="459px" viewBox="0 0 495 459" zoomAndPan="magnify" preserveAspectRatio="none" contentStyleType="text/css"><?plantuml 1.2026.7beta11?><defs/><g font-family="sans-serif" lengthAdjust="spacing"><rect x="8.06" y="7" width="147.423" height="40" fill="#F1F1F1" style="stroke:#181818;stroke-width:0.5;" rx="12.5" ry="12.5"/><text x="13.06" y="31.847" fill="#000" font-size="14" textLength="137.423">EQUIPO_EXISTENTE</text><g class="entity" data-qualified-name="UC" id="ent0002" data-source-line="4"><path d="M26.27,124 L137.269,124 A12.5,12.5 0 0 1 149.769,136.5 L149.769,150.297 L13.77,150.297 L13.77,136.5 A12.5,12.5 0 0 1 26.27,124" fill="#F1F1F1"/><rect x="13.77" y="124" width="135.999" height="204.297" fill="none" style="stroke:#181818;stroke-width:0.5;" rx="12.5" ry="12.5"/><line x1="13.77" y1="150.297" x2="149.769" y2="150.297" style="stroke:#181818;stroke-width:0.5;"/><text x="23.77" y="141.995" fill="#000" font-size="14" textLength="115.999">eliminarEquipo()</text><g class="start_entity" data-qualified-name="UC..start.UC" id="ent0004" data-source-line="5"><ellipse cx="50.77" cy="171.297" rx="10" ry="10" fill="#222" style="stroke:#222;stroke-width:1;"/></g><rect x="25.77" y="217.297" width="50" height="40" fill="#F1F1F1" style="stroke:#181818;stroke-width:0.5;" rx="12.5" ry="12.5"/><text x="41.924" y="242.144" fill="#000" font-size="14" textLength="17.691">fin</text><g class="end_entity" data-qualified-name="UC..end.UC" id="ent0007" data-source-line="6"><ellipse cx="50.77" cy="304.297" rx="11" ry="11" fill="none" style="stroke:#222;stroke-width:1;"/><ellipse cx="50.77" cy="304.297" rx="6" ry="6" fill="#222" style="stroke:#222;stroke-width:1;"/></g><!--link *start*UC to fin--><g class="link" data-entity-1="ent0004" data-entity-2="ent0005" id="lnk6" data-source-line="5" data-link-type="dependency"><path d="M50.77,181.737 C50.77,190.987 50.77,200.357 50.77,212.017" style="stroke:#181818;stroke-width:1;" fill="none" id="*start*UC-to-fin"/><polygon points="50.77,217.017,54.77,208.017,50.77,212.017,46.77,208.017,50.77,217.017" fill="#181818" style="stroke:#181818;stroke-width:1;stroke-linejoin:miter;stroke-miterlimit:10;"/></g><!--link fin to *end*UC--><g class="link" data-entity-1="ent0005" data-entity-2="ent0007" id="lnk8" data-source-line="6" data-link-type="dependency"><path d="M50.77,257.447 C50.77,269.127 50.77,278.597 50.77,288.127" style="stroke:#181818;stroke-width:1;" fill="none" id="fin-to-*end*UC"/><polygon points="50.77,293.127,54.77,284.127,50.77,288.127,46.77,284.127,50.77,293.127" fill="#181818" style="stroke:#181818;stroke-width:1;stroke-linejoin:miter;stroke-miterlimit:10;"/></g></g><rect x="7" y="405.3" width="149.535" height="40" fill="#F1F1F1" style="stroke:#181818;stroke-width:0.5;" rx="12.5" ry="12.5"/><text x="12" y="430.147" fill="#000" font-size="14" textLength="139.535">EQUIPO_ELIMINADO</text><!--link Pre to UC--><g class="link" data-entity-1="ent0001" data-entity-2="ent0002" id="lnk9" data-source-line="10" data-link-type="dependency"><path d="M81.77,47.27 C81.77,65.58 81.77,89.61 81.77,118.95" style="stroke:#181818;stroke-width:1;" fill="none" id="Pre-to-UC"/><polygon points="81.77,123.95,85.77,114.95,81.77,118.95,77.77,114.95,81.77,123.95" fill="#181818" style="stroke:#181818;stroke-width:1;stroke-linejoin:miter;stroke-miterlimit:10;"/><text x="82.77" y="90.067" fill="#000" font-size="13" textLength="104.863" font-weight="700">Administrador</text><text x="191.766" y="90.067" fill="#000" font-size="13" textLength="152.001">confirma la eliminación</text></g><!--link UC to Post--><g class="link" data-entity-1="ent0002" data-entity-2="ent0003" id="lnk10" data-source-line="11" data-link-type="dependency"><path d="M81.77,328.61 C81.77,357.86 81.77,381.77 81.77,400.03" style="stroke:#181818;stroke-width:1;" fill="none" id="UC-to-Post"/><polygon points="81.77,405.03,85.77,396.03,81.77,400.03,77.77,396.03,81.77,405.03" fill="#181818" style="stroke:#181818;stroke-width:1;stroke-linejoin:miter;stroke-miterlimit:10;"/><text x="82.77" y="371.367" fill="#000" font-size="13" textLength="58.906" font-weight="700">Sistema</text><text x="145.809" y="371.367" fill="#000" font-size="13" textLength="334.141">elimina el Equipo y libera sus Categorías y Agentes</text></g><?plantuml-src NOxDQi9058NtynG7LrQGxaK2GMSHQDMYWb149idLNaXcqfbn4KeVgIiVmHVhDT6DctkvFzyvvujB0jLDR55IA3mtaPrLAaGJ2GFziSrMouFUPUkDNcpq02PWvUbnfufhjiRhxpCtRlZItRSp_2ZWSxJ7U9pWo5OcgTqaM_NxBF-MlMUBTBxivLs8Ieb9zozY4qpp92t5Y4FqfdH--fedA9mzigyDAeDxZeAl5wi4kP4tdPvT2qUrwQZxftJqeT6YufoyGJW7p2JNoVdhdmHfaPx8HWh_?></g></svg>