<svg xmlns="http://www.w3.org/2000/svg" xmlns:xlink="http://www.w3.org/1999/xlink" version="1.1" data-diagram-type="SALT" style="width:441px;height:107px;background:#FFFFFF;" width="441px" height="107px" viewBox="0 0 441 107" zoomAndPan="magnify" preserveAspectRatio="none" contentStyleType="text/css"><?plantuml 1.2026.7beta11?><defs/><g font-family="sans-serif" lengthAdjust="spacing"><text x="6" y="17.139" fill="#000" font-size="12" textLength="106.799" font-weight="700">Crear Categoría</text><line x1="6" y1="25.469" x2="304.941" y2="25.469" style="stroke:#AAA;stroke-width:1;stroke-dasharray:1,2;"/><text x="7" y="42.107" fill="#000" font-size="12" textLength="47.941">Nombre</text><text x="59.941" y="42.107" fill="#000" font-size="12"> </text><line x1="57.941" y1="44.938" x2="300.941" y2="44.938" style="stroke:#000;stroke-width:1;"/><line x1="57.941" y1="41.938" x2="57.941" y2="43.938" style="stroke:#000;stroke-width:1;"/><line x1="300.941" y1="41.938" x2="300.941" y2="43.938" style="stroke:#000;stroke-width:1;"/><text x="7" y="60.076" fill="#000" font-size="12" textLength="41.098">Equipo</text><rect x="56.941" y="48.938" width="103" height="16.969" fill="#EEE" style="stroke:#000;stroke-width:1;"/><text x="58.941" y="62.076" fill="#000" font-size="12" textLength="66.82">Sin asignar</text><line x1="148.941" y1="48.938" x2="148.941" y2="65.906" style="stroke:#000;stroke-width:1;"/><polygon points="151.941,54.938,157.941,54.938,154.941,60.906" fill="#000" style="stroke:#000;stroke-width:1;stroke-linejoin:miter;stroke-miterlimit:10;"/><line x1="6" y1="29.969" x2="55.941" y2="29.969" style="stroke:#000;stroke-width:1;"/><line x1="55.941" y1="47.938" x2="303.941" y2="47.938" style="stroke:#000;stroke-width:1;"/><line x1="55.941" y1="29.969" x2="303.941" y2="29.969" style="stroke:#000;stroke-width:1;"/><line x1="6" y1="67.906" x2="55.941" y2="67.906" style="stroke:#000;stroke-width:1;"/><line x1="55.941" y1="67.906" x2="303.941" y2="67.906" style="stroke:#000;stroke-width:1;"/><line x1="6" y1="47.938" x2="55.941" y2="47.938" style="stroke:#000;stroke-width:1;"/><line x1="6" y1="29.969" x2="6" y2="47.938" style="stroke:#000;stroke-width:1;"/><line x1="55.941" y1="47.938" x2="55.941" y2="67.906" style="stroke:#000;stroke-width:1;"/><line x1="303.941" y1="47.938" x2="303.941" y2="67.906" style="stroke:#000;stroke-width:1;"/><line x1="55.941" y1="29.969" x2="55.941" y2="47.938" style="stroke:#000;stroke-width:1;"/><line x1="303.941" y1="29.969" x2="303.941" y2="47.938" style="stroke:#000;stroke-width:1;"/><line x1="6" y1="47.938" x2="6" y2="67.906" style="stroke:#000;stroke-width:1;"/><line x1="6" y1="73.406" x2="304.941" y2="73.406" style="stroke:#AAA;stroke-width:1;stroke-dasharray:1,2;"/><rect x="8.5" y="80.406" width="68" height="17.969" fill="#EEE" style="stroke:#000;stroke-width:2.5;" rx="5" ry="5"/><text x="16.03" y="93.545" fill="#000" font-size="12" textLength="52.939">Cancelar</text><rect x="308.441" y="80.406" width="124" height="17.969" fill="#EEE" style="stroke:#000;stroke-width:2.5;" rx="5" ry="5"/><text x="322.843" y="93.545" fill="#000" font-size="12" textLength="95.197">Crear Categoría</text><?plantuml-src SoWkIImgAKxCAL48TJOor4qkIaqiqarEB4bDpo_AJDGjponAJIjAp4tbgkPIKB19idC6AL1mXYWul3OHAAgd1oIgbO64We9VVcvIKQg2Ges2aW9Ue0HMxbfOcbcG3r8U5voPfv1Od9cUbrWK1vIhXHaSxPoObvoQarWK2rGLZMvzB5SjbqDgNWh81rnSXdf61aPcUkP9gIM9XeO0?></g></svg>